<mxfile host="app.diagrams.net" agent="Mozilla/5.0 (Windows NT 10.0; Win64; x64) AppleWebKit/537.36 (KHTML, like Gecko) Chrome/135.0.0.0 Safari/537.36 Edg/135.0.0.0" version="26.2.12">
  <diagram name="Página-1" id="qZqwwJpQjj4zyO_WCMjl">
    <mxGraphModel dx="1036" dy="536" grid="1" gridSize="10" guides="1" tooltips="1" connect="1" arrows="1" fold="1" page="1" pageScale="1" pageWidth="827" pageHeight="1169" math="0" shadow="0">
      <root>
        <mxCell id="0" />
        <mxCell id="1" parent="0" />
        <mxCell id="l-m55x4DhZByLJ7CC1EM-5" value=": Servidor" style="shape=umlLifeline;perimeter=lifelinePerimeter;whiteSpace=wrap;html=1;container=1;dropTarget=0;collapsible=0;recursiveResize=0;outlineConnect=0;portConstraint=eastwest;newEdgeStyle={&quot;curved&quot;:0,&quot;rounded&quot;:0};" parent="1" vertex="1">
          <mxGeometry x="422" y="80" width="100" height="300" as="geometry" />
        </mxCell>
        <mxCell id="l-m55x4DhZByLJ7CC1EM-6" value=": Banco de dados" style="shape=umlLifeline;perimeter=lifelinePerimeter;whiteSpace=wrap;html=1;container=1;dropTarget=0;collapsible=0;recursiveResize=0;outlineConnect=0;portConstraint=eastwest;newEdgeStyle={&quot;curved&quot;:0,&quot;rounded&quot;:0};" parent="1" vertex="1">
          <mxGeometry x="615" y="80" width="100" height="300" as="geometry" />
        </mxCell>
        <mxCell id="l-m55x4DhZByLJ7CC1EM-7" value=": Interface" style="shape=umlLifeline;perimeter=lifelinePerimeter;whiteSpace=wrap;html=1;container=1;dropTarget=0;collapsible=0;recursiveResize=0;outlineConnect=0;portConstraint=eastwest;newEdgeStyle={&quot;curved&quot;:0,&quot;rounded&quot;:0};" parent="1" vertex="1">
          <mxGeometry x="230" y="80" width="100" height="300" as="geometry" />
        </mxCell>
        <mxCell id="vmvxkoFMaI_61dMWiNMJ-1" value="Admin" style="shape=umlActor;verticalLabelPosition=bottom;verticalAlign=top;html=1;outlineConnect=0;" parent="1" vertex="1">
          <mxGeometry x="80" y="60" width="20" height="40" as="geometry" />
        </mxCell>
        <mxCell id="vmvxkoFMaI_61dMWiNMJ-6" value="" style="line;strokeWidth=1;direction=south;html=1;dashed=1;gradientColor=default;" parent="1" vertex="1">
          <mxGeometry x="82" y="130" width="10" height="250" as="geometry" />
        </mxCell>
        <mxCell id="vmvxkoFMaI_61dMWiNMJ-12" value="" style="rounded=1;whiteSpace=wrap;html=1;" parent="1" vertex="1">
          <mxGeometry x="272" y="148" width="15" height="150" as="geometry" />
        </mxCell>
        <mxCell id="vmvxkoFMaI_61dMWiNMJ-15" style="edgeStyle=orthogonalEdgeStyle;rounded=0;orthogonalLoop=1;jettySize=auto;html=1;entryX=-0.026;entryY=0.11;entryDx=0;entryDy=0;entryPerimeter=0;" parent="1" source="vmvxkoFMaI_61dMWiNMJ-13" target="vmvxkoFMaI_61dMWiNMJ-12" edge="1">
          <mxGeometry relative="1" as="geometry">
            <mxPoint x="230" y="164" as="targetPoint" />
            <Array as="points">
              <mxPoint x="184" y="165" />
            </Array>
          </mxGeometry>
        </mxCell>
        <mxCell id="vmvxkoFMaI_61dMWiNMJ-13" value="" style="rounded=1;whiteSpace=wrap;html=1;" parent="1" vertex="1">
          <mxGeometry x="80" y="140" width="15" height="150" as="geometry" />
        </mxCell>
        <mxCell id="vmvxkoFMaI_61dMWiNMJ-19" value="Preencher as informação&amp;nbsp;&lt;div&gt;para a criação do protético&lt;/div&gt;" style="text;html=1;align=center;verticalAlign=middle;resizable=0;points=[];autosize=1;strokeColor=none;fillColor=none;fontSize=10;" parent="1" vertex="1">
          <mxGeometry x="110" y="130" width="140" height="40" as="geometry" />
        </mxCell>
        <mxCell id="vmvxkoFMaI_61dMWiNMJ-20" style="edgeStyle=orthogonalEdgeStyle;rounded=0;orthogonalLoop=1;jettySize=auto;html=1;entryX=-0.026;entryY=0.11;entryDx=0;entryDy=0;entryPerimeter=0;" parent="1" edge="1">
          <mxGeometry relative="1" as="geometry">
            <mxPoint x="464" y="177.23000000000002" as="targetPoint" />
            <mxPoint x="287" y="177.23000000000002" as="sourcePoint" />
          </mxGeometry>
        </mxCell>
        <mxCell id="vmvxkoFMaI_61dMWiNMJ-21" value="" style="rounded=1;whiteSpace=wrap;html=1;" parent="1" vertex="1">
          <mxGeometry x="464.5" y="148" width="15" height="150" as="geometry" />
        </mxCell>
        <mxCell id="vmvxkoFMaI_61dMWiNMJ-22" value="enviarESalvar(Protetico protetico)" style="text;html=1;align=center;verticalAlign=middle;resizable=0;points=[];autosize=1;strokeColor=none;fillColor=none;fontSize=10;" parent="1" vertex="1">
          <mxGeometry x="290" y="152" width="170" height="30" as="geometry" />
        </mxCell>
        <mxCell id="vmvxkoFMaI_61dMWiNMJ-23" value="" style="rounded=1;whiteSpace=wrap;html=1;" parent="1" vertex="1">
          <mxGeometry x="657.5" y="151" width="15" height="150" as="geometry" />
        </mxCell>
        <mxCell id="vmvxkoFMaI_61dMWiNMJ-24" style="edgeStyle=orthogonalEdgeStyle;rounded=0;orthogonalLoop=1;jettySize=auto;html=1;entryX=-0.026;entryY=0.11;entryDx=0;entryDy=0;entryPerimeter=0;" parent="1" edge="1">
          <mxGeometry relative="1" as="geometry">
            <mxPoint x="656" y="190" as="targetPoint" />
            <mxPoint x="479" y="190" as="sourcePoint" />
          </mxGeometry>
        </mxCell>
        <mxCell id="vmvxkoFMaI_61dMWiNMJ-26" value="salvarNovoProtetico(Protetico protetico)" style="text;html=1;align=center;verticalAlign=middle;resizable=0;points=[];autosize=1;strokeColor=none;fillColor=none;fontSize=10;" parent="1" vertex="1">
          <mxGeometry x="469" y="166" width="200" height="30" as="geometry" />
        </mxCell>
        <mxCell id="vmvxkoFMaI_61dMWiNMJ-27" style="edgeStyle=orthogonalEdgeStyle;rounded=0;orthogonalLoop=1;jettySize=auto;html=1;entryX=-0.026;entryY=0.11;entryDx=0;entryDy=0;entryPerimeter=0;dashed=1;" parent="1" edge="1">
          <mxGeometry relative="1" as="geometry">
            <mxPoint x="480" y="224" as="targetPoint" />
            <mxPoint x="657" y="224" as="sourcePoint" />
          </mxGeometry>
        </mxCell>
        <mxCell id="vmvxkoFMaI_61dMWiNMJ-28" value="Dados salvos" style="text;html=1;align=center;verticalAlign=middle;resizable=0;points=[];autosize=1;strokeColor=none;fillColor=none;fontSize=10;" parent="1" vertex="1">
          <mxGeometry x="525" y="217" width="80" height="30" as="geometry" />
        </mxCell>
        <mxCell id="vmvxkoFMaI_61dMWiNMJ-29" style="edgeStyle=orthogonalEdgeStyle;rounded=0;orthogonalLoop=1;jettySize=auto;html=1;entryX=-0.026;entryY=0.11;entryDx=0;entryDy=0;entryPerimeter=0;dashed=1;" parent="1" edge="1">
          <mxGeometry relative="1" as="geometry">
            <mxPoint x="287.5" y="246" as="targetPoint" />
            <mxPoint x="464.5" y="246" as="sourcePoint" />
          </mxGeometry>
        </mxCell>
        <mxCell id="vmvxkoFMaI_61dMWiNMJ-30" value="Dados salvos&amp;nbsp;" style="text;html=1;align=center;verticalAlign=middle;resizable=0;points=[];autosize=1;strokeColor=none;fillColor=none;fontSize=10;" parent="1" vertex="1">
          <mxGeometry x="330" y="241" width="90" height="30" as="geometry" />
        </mxCell>
        <mxCell id="vmvxkoFMaI_61dMWiNMJ-31" style="edgeStyle=orthogonalEdgeStyle;rounded=0;orthogonalLoop=1;jettySize=auto;html=1;entryX=-0.026;entryY=0.11;entryDx=0;entryDy=0;entryPerimeter=0;dashed=1;" parent="1" edge="1">
          <mxGeometry relative="1" as="geometry">
            <mxPoint x="94.5" y="266.62" as="targetPoint" />
            <mxPoint x="271.5" y="266.62" as="sourcePoint" />
          </mxGeometry>
        </mxCell>
        <mxCell id="vmvxkoFMaI_61dMWiNMJ-32" value="Confirmaçao da criaçao do protetico" style="text;html=1;align=center;verticalAlign=middle;resizable=0;points=[];autosize=1;strokeColor=none;fillColor=none;fontSize=10;" parent="1" vertex="1">
          <mxGeometry x="95" y="261" width="180" height="30" as="geometry" />
        </mxCell>
        <mxCell id="vmvxkoFMaI_61dMWiNMJ-33" value="Diagrama de sequencia&lt;div&gt;Criar protético&amp;nbsp;&lt;/div&gt;" style="shape=umlFrame;whiteSpace=wrap;html=1;pointerEvents=0;width=210;height=30;" parent="1" vertex="1">
          <mxGeometry x="20" width="730" height="400" as="geometry" />
        </mxCell>
      </root>
    </mxGraphModel>
  </diagram>
</mxfile>
